<svg width="17" height="16" viewBox="0 0 17 16" fill="none" xmlns="http://www.w3.org/2000/svg">
<path d="M8.51436 16C7.37558 16 6.39016 14.9455 6.07851 13.4177H0.880537C0.750091 13.4177 0.631594 13.3385 0.580679 13.2163C0.529232 13.0943 0.554499 12.9533 0.644989 12.8567C0.980312 12.5006 1.2995 12.2243 1.5814 11.9803C2.27404 11.3806 2.69239 11.0184 2.69239 10.0835V6.99084C2.70602 4.32966 4.45029 1.96236 6.87138 1.27273C6.98874 0.732213 7.41447 0 8.46694 0C9.50853 0 9.93937 0.75571 10.0603 1.30814C12.4948 2.00023 14.2475 4.35293 14.26 6.98976V10.1854C14.26 11.0916 14.6302 11.3986 15.3007 11.9549C15.5966 12.2 15.9313 12.4778 16.2897 12.857C16.3799 12.953 16.4058 13.0944 16.354 13.2167C16.3028 13.3387 16.1846 13.418 16.0542 13.418H10.9497C10.638 14.9455 9.65313 16 8.51436 16ZM6.778 13.5369C7.07002 14.6003 7.76266 15.3372 8.51436 15.3372C9.26583 15.3372 9.95794 14.6003 10.2502 13.5369H6.778ZM1.69601 12.7546H15.2297C15.1115 12.6525 14.9971 12.5577 14.8886 12.4683C14.1734 11.8749 13.6082 11.4064 13.6082 10.1854V6.99084C13.5968 4.58172 11.9516 2.43811 9.69583 1.8965C9.55663 1.86303 9.45533 1.74129 9.44521 1.59637C9.43867 1.50284 9.34719 0.662493 8.4674 0.662493C7.56174 0.662493 7.4937 1.46388 7.48959 1.55571C7.48198 1.70288 7.37954 1.82709 7.23844 1.86056C4.99529 2.3983 3.35809 4.55683 3.34584 6.99277V10.0838C3.34584 11.3248 2.72428 11.8622 2.00493 12.4852C1.90607 12.5701 1.80256 12.6598 1.69601 12.7546Z" fill="#F5F5F5"/>
<path d="M10.2064 2.03072C10.175 2.03072 10.1429 2.02601 10.1113 2.01604C8.38065 1.48108 6.95312 1.9297 6.93874 1.93441C6.76606 1.98975 6.58409 1.89345 6.52906 1.71976C6.47404 1.54577 6.56803 1.35957 6.73904 1.30369C6.80464 1.28212 8.36588 0.78419 10.3011 1.38222C10.4735 1.43509 10.5704 1.62036 10.5185 1.79551C10.4755 1.93859 10.3458 2.03072 10.2064 2.03072Z" fill="#F5F5F5"/>
</svg>
