<svg width="12" height="13" viewBox="0 0 12 13" fill="none" xmlns="http://www.w3.org/2000/svg">
<path d="M9.75 0.75H2.25C1.00708 0.75 0 1.71512 0 2.90625V10.0938C0 11.2849 1.00708 12.25 2.25 12.25H9.75C10.9929 12.25 12 11.2849 12 10.0938V2.90625C12 1.71512 10.9929 0.75 9.75 0.75ZM8.66769 8.4435L8.02708 9.05698C7.90985 9.16977 7.71785 9.16977 7.60062 9.05698L6 7.52306L4.39985 9.05654C4.28215 9.16933 4.09062 9.16933 3.97292 9.05565L3.33231 8.4435C3.21554 8.33027 3.21554 8.1476 3.33231 8.03392L4.93292 6.50044L3.33277 4.96696C3.21554 4.85373 3.21554 4.66973 3.33277 4.55783L3.97338 3.9439C4.09108 3.83023 4.28308 3.83023 4.40031 3.9439L6 5.47783L7.60062 3.9439C7.71831 3.83023 7.91031 3.83023 8.02708 3.9439L8.66769 4.55694C8.78492 4.66973 8.78492 4.85373 8.66815 4.96696L7.06754 6.50044L8.66815 8.03392C8.78446 8.1476 8.78446 8.33027 8.66769 8.4435Z" fill="#EDEDED"/>
</svg>
