<svg width="20" height="20" viewBox="0 0 20 15" fill="none" xmlns="http://www.w3.org/2000/svg">
<path d="M3.28746 8.4168H13.7054C14.202 8.4168 14.6046 8.00629 14.6046 7.49994C14.6046 6.99359 14.202 6.58308 13.7054 6.58308H3.28746L4.45008 5.3977C4.80125 5.03969 4.80125 4.45913 4.45008 4.10107C4.09902 3.743 3.52964 3.743 3.17841 4.10107L0.480965 6.85147C0.460103 6.87268 0.440441 6.89487 0.421737 6.9181C0.417181 6.92378 0.413284 6.9299 0.408848 6.9357C0.39512 6.95349 0.381632 6.97134 0.369283 6.99017C0.365686 6.99567 0.362749 7.00147 0.359212 7.00704C0.346863 7.02672 0.334754 7.04658 0.323843 7.0673C0.321745 7.0714 0.320006 7.07574 0.317908 7.07983C0.306578 7.10227 0.295668 7.12501 0.286136 7.14848C0.284937 7.15135 0.284098 7.15441 0.282959 7.15734C0.273188 7.18203 0.264136 7.20703 0.256462 7.23277C0.255443 7.23601 0.254904 7.23937 0.254005 7.24267C0.246751 7.26791 0.240097 7.2934 0.235001 7.3195C0.233503 7.32727 0.232843 7.33527 0.231464 7.3431C0.227748 7.36473 0.224031 7.38637 0.221933 7.40844C0.218875 7.43869 0.217377 7.46926 0.217377 7.49994C0.217377 7.53063 0.218875 7.56119 0.221933 7.59151C0.224031 7.61388 0.227867 7.6357 0.231524 7.65752C0.232843 7.6651 0.233503 7.67286 0.235001 7.68038C0.240157 7.70672 0.246751 7.73246 0.254064 7.75795C0.254964 7.76094 0.255503 7.76412 0.256402 7.76711C0.264136 7.79297 0.273188 7.81821 0.283079 7.84315C0.284158 7.84584 0.284937 7.84872 0.286076 7.85141C0.295668 7.87506 0.306638 7.89792 0.318088 7.92048C0.320066 7.92445 0.321745 7.92861 0.323783 7.93258C0.334813 7.95342 0.346983 7.97347 0.359512 7.99334C0.362869 7.99871 0.365746 8.0044 0.369223 8.00966C0.381632 8.02854 0.39524 8.04651 0.408908 8.06436C0.413284 8.07011 0.417181 8.07616 0.421677 8.08178C0.440441 8.10495 0.460103 8.1272 0.480905 8.14841L3.17835 10.8988C3.35394 11.0779 3.58408 11.1674 3.81421 11.1674C4.04435 11.1674 4.27449 11.0779 4.45002 10.8988C4.80119 10.5407 4.80119 9.96025 4.45002 9.60219L3.28746 8.4168Z" fill="#F5F5F5"/>
<path d="M12.6444 0C10.1899 0 7.90629 1.24155 6.5356 3.32106C6.25864 3.74129 6.36822 4.31097 6.78036 4.59342C7.19256 4.87582 7.75121 4.7642 8.02828 4.34385C9.06423 2.77204 10.7899 1.83366 12.6444 1.83366C15.7086 1.83373 18.2016 4.37558 18.2016 7.5C18.2016 10.6244 15.7086 13.1663 12.6444 13.1663C10.7953 13.1663 9.07251 12.2321 8.03578 10.6675C7.75768 10.2478 7.19885 10.1376 6.78725 10.421C6.37578 10.7045 6.26751 11.2744 6.54555 11.694C7.9172 13.7641 10.1971 15 12.6444 15C16.7003 15 20 11.6355 20 7.5C20 3.36446 16.7003 0 12.6444 0Z" fill="#F5F5F5"/>
</svg>
