<svg width="16" height="19" viewBox="0 0 16 19" fill="none" xmlns="http://www.w3.org/2000/svg">
<path d="M8 0.716599C3.58877 0.716599 0 4.0263 0 8.09451C0 9.77318 0.596502 11.3541 1.72504 12.6664C3.18629 14.3655 7.43565 18.3999 7.6158 18.5708L7.99995 18.9352L8.38415 18.5708C8.56441 18.3998 12.815 14.3646 14.2765 12.6649C15.404 11.3537 16 9.77328 16 8.09451C16 4.0263 12.4112 0.716599 8 0.716599ZM13.4368 12.0508C12.2603 13.419 9.10073 16.4627 8 17.5154C6.89938 16.4628 3.74095 13.42 2.56471 12.0522C1.58798 10.9164 1.07169 9.54788 1.07169 8.09451C1.07169 4.57128 4.1797 1.70495 8 1.70495C11.8203 1.70495 14.9283 4.57128 14.9283 8.09451C14.9283 9.54798 14.4125 10.9161 13.4368 12.0508Z" fill="black"/>
<path d="M8 3.64534C5.38883 3.64534 3.26453 5.60446 3.26453 8.01258C3.26453 10.4207 5.38888 12.3798 8 12.3798C10.6111 12.3798 12.7355 10.4207 12.7355 8.01258C12.7355 5.60451 10.6112 3.64534 8 3.64534ZM8 11.3915C5.97976 11.3915 4.33622 9.87568 4.33622 8.01258C4.33622 6.14943 5.97981 4.63369 8 4.63369C10.0202 4.63369 11.6637 6.14948 11.6638 8.01258C11.6638 9.87573 10.0202 11.3915 8 11.3915Z" fill="black"/>
</svg>
