<svg width="20" height="20" viewBox="0 0 16 16" fill="none" xmlns="http://www.w3.org/2000/svg">
<path d="M16 14.7344L11.2764 10.0108C12.0605 8.96444 12.531 7.67046 12.531 6.2655C12.531 2.81052 9.72048 0 6.2655 0C2.81052 0 0 2.81052 0 6.2655C0 9.72048 2.81052 12.531 6.2655 12.531C7.67046 12.531 8.96444 12.0605 10.0108 11.2764L14.7344 16L16 14.7344ZM0.596714 6.2655C0.596714 3.13961 3.13961 0.596714 6.2655 0.596714C9.39139 0.596714 11.9343 3.13961 11.9343 6.2655C11.9343 9.39139 9.39139 11.9343 6.2655 11.9343C3.13961 11.9343 0.596714 9.39139 0.596714 6.2655ZM10.6117 10.7686C10.6648 10.7173 10.717 10.6651 10.7683 10.612C10.8119 10.5669 10.859 10.5254 10.9011 10.4792L15.1562 14.7344L14.7341 15.1565L10.4792 10.9011C10.5254 10.859 10.5666 10.8119 10.6117 10.7686Z" fill="#F5F5F5"/>
</svg>
