<svg width="16" height="15" viewBox="0 0 16 15" fill="none" xmlns="http://www.w3.org/2000/svg">
<path d="M13.6568 2.25591C12.1458 0.879465 10.1369 0.121456 8 0.121456C5.86313 0.121456 3.85416 0.879465 2.34316 2.25591C0.832156 3.63233 0 5.46236 0 7.4089C0 9.35545 0.832156 11.1855 2.34316 12.5619C3.85416 13.9383 5.86313 14.6964 8 14.6964C10.1369 14.6964 12.1458 13.9383 13.6568 12.5619C15.1678 11.1855 16 9.35545 16 7.4089C16 5.46236 15.1678 3.63233 13.6568 2.25591ZM13.3026 12.2392C11.8862 13.5294 10.003 14.2399 8 14.2399C5.99697 14.2399 4.11381 13.5294 2.69741 12.2392C1.28106 10.949 0.501031 9.23353 0.501031 7.4089C0.501031 5.58428 1.28106 3.86886 2.69741 2.57864C4.11381 1.28844 5.99697 0.577861 8 0.577861C10.003 0.577861 11.8862 1.28844 13.3026 2.57864C14.7189 3.86883 15.499 5.58425 15.499 7.4089C15.499 9.23355 14.7189 10.949 13.3026 12.2392Z" fill="black"/>
<path d="M10.5713 5.14942C10.0767 4.46518 9.2511 4.05668 8.36275 4.05668C7.64316 4.05668 7.04003 4.26285 6.61863 4.65293C6.19719 5.04298 5.97444 5.60123 5.97444 6.26728C5.97444 6.69438 6.07616 7.11292 6.18441 7.51943H5.69053C5.55219 7.51943 5.44 7.62321 5.44 7.75132C5.44 7.87939 5.55216 7.9832 5.69053 7.9832H6.30682C6.52128 8.84091 6.58422 9.59622 5.54494 10.2834C5.45631 10.342 5.41875 10.4468 5.45197 10.5428C5.48522 10.6388 5.58163 10.7039 5.69053 10.7039H10.2333C10.3717 10.7039 10.4839 10.6001 10.4839 10.472C10.4839 10.344 10.3717 10.2401 10.2333 10.2401H6.35407C7.05666 9.52226 6.9951 8.73039 6.81988 7.98318H8.36275C8.5011 7.98318 8.61328 7.87939 8.61328 7.75129C8.61328 7.62321 8.50113 7.5194 8.36275 7.5194H6.7006C6.58925 7.10505 6.4755 6.67711 6.4755 6.26725C6.4755 5.72685 6.6475 5.28204 6.97294 4.98082C7.29838 4.67963 7.77891 4.5204 8.36278 4.5204C9.08357 4.5204 9.75347 4.85193 10.1549 5.40726C10.2318 5.51367 10.3874 5.54231 10.5024 5.47104C10.6174 5.39988 10.6482 5.2559 10.5713 5.14942Z" fill="black"/>
<path d="M7.94384 1.28745C4.26934 1.28745 1.27997 4.01056 1.27997 7.35778C1.27997 10.705 4.26934 13.4281 7.94384 13.4281C11.6183 13.4281 14.6077 10.705 14.6077 7.35778C14.6077 4.01056 11.6183 1.28745 7.94384 1.28745ZM7.94384 12.9717C4.54562 12.9717 1.781 10.4533 1.781 7.35778C1.781 4.26226 4.54562 1.74385 7.94384 1.74385C11.3421 1.74385 14.1067 4.26226 14.1067 7.35778C14.1067 10.4533 11.3421 12.9717 7.94384 12.9717Z" fill="black"/>
</svg>
