<svg width="20" height="20" viewBox="0 0 17 16" fill="none" xmlns="http://www.w3.org/2000/svg">
<path d="M14.1719 2.34274C12.6766 0.831084 10.6895 0 8.5761 0C6.46272 0 4.47556 0.831084 2.98033 2.34274C1.48511 3.8544 0.663055 5.86339 0.663055 8C0.663055 10.1366 1.48511 12.1456 2.98033 13.6573C4.47556 15.1689 6.46272 16 8.5761 16C10.6895 16 12.6766 15.1689 14.1719 13.6573C15.6671 12.1456 16.4891 10.1366 16.4891 8C16.4891 5.86339 15.6671 3.8544 14.1719 2.34274ZM8.5761 15.1166C4.69563 15.1166 1.53689 11.9231 1.53689 8C1.53689 4.07689 4.69563 0.883436 8.5761 0.883436C12.4566 0.883436 15.6153 4.07689 15.6153 8C15.6153 11.9231 12.4566 15.1166 8.5761 15.1166Z" fill="#F5F5F5"/>
<path d="M8.57606 6.64863C9.71205 6.64863 10.6344 5.71285 10.6344 4.56765C10.6344 3.42246 9.71205 2.4834 8.57606 2.4834C7.44008 2.4834 6.5177 3.41919 6.5177 4.56438C6.5177 5.70957 7.44008 6.64863 8.57606 6.64863ZM8.57606 3.36683C9.22982 3.36683 9.76059 3.90344 9.76059 4.56438C9.76059 5.22532 9.22982 5.76193 8.57606 5.76193C7.92231 5.76193 7.39153 5.22532 7.39153 4.56438C7.39153 3.90344 7.92231 3.36683 8.57606 3.36683Z" fill="#F5F5F5"/>
<path d="M11.696 9.17798C10.9743 8.10477 9.92568 7.55835 8.57609 7.55835C7.22651 7.55835 6.17791 8.1015 5.45619 9.17798C4.91894 9.97635 4.57588 11.0659 4.43995 12.4074C4.41406 12.6496 4.58883 12.8688 4.82832 12.8917C5.06782 12.9179 5.28466 12.7412 5.30731 12.499C5.58241 9.8062 6.68279 8.44179 8.57609 8.44179C10.4694 8.44179 11.5698 9.8062 11.8449 12.499C11.8675 12.7248 12.0585 12.895 12.2786 12.895C12.2947 12.895 12.3077 12.895 12.3239 12.8917C12.5634 12.8655 12.7381 12.6496 12.7122 12.4074C12.5763 11.0626 12.2332 9.97635 11.696 9.17798Z" fill="#F5F5F5"/>
</svg>
