<svg width="20" height="20" viewBox="0 0 16 16" fill="none" xmlns="http://www.w3.org/2000/svg">
<path d="M15.9758 6.074C15.9178 5.88687 15.7635 5.75047 15.5777 5.72221L10.6472 4.97094L8.44234 0.288171C8.35922 0.111726 8.18779 0 8.00012 0C7.81238 0 7.64095 0.111726 7.55783 0.288171L5.35297 4.97094L0.422316 5.72221C0.236485 5.75054 0.0821513 5.88694 0.0241529 6.074C-0.0338455 6.26113 0.0144865 6.46652 0.148961 6.60389L3.71678 10.249L2.87462 15.3957C2.84293 15.5896 2.91894 15.7857 3.07078 15.9013C3.22261 16.0169 3.42396 16.0322 3.59013 15.9406L8.00012 13.5108L12.41 15.9406C12.4822 15.9804 12.561 16 12.6395 16C12.6399 16 12.6404 16 12.6408 16C12.6408 16 12.6408 16 12.6409 16C12.9133 16 13.1341 15.7685 13.1341 15.483C13.1341 15.4397 13.129 15.3976 13.1194 15.3573L12.2834 10.2489L15.8511 6.60382C15.9855 6.46659 16.0339 6.26113 15.9758 6.074ZM11.4093 9.69837C11.293 9.81712 11.2399 9.98826 11.2674 10.156L11.9846 14.5382L8.22968 12.4693C8.086 12.3901 7.91437 12.3901 7.77075 12.4693L4.01578 14.5382L4.73294 10.156C4.76043 9.98826 4.70736 9.81719 4.5911 9.69837L1.55315 6.59465L5.75159 5.95497C5.91224 5.9305 6.05112 5.82477 6.12293 5.67217L8.00031 1.68499L9.8777 5.67217C9.94951 5.8247 10.0884 5.9305 10.249 5.95497L14.4472 6.59465L11.4093 9.69837Z" fill="#F5F5F5"/>
</svg>
