<svg width="16" height="17" viewBox="0 0 16 17" fill="none" xmlns="http://www.w3.org/2000/svg">
<path d="M13.6568 4.80287C13.2228 4.42767 12.7474 4.10121 12.24 3.826L12.6877 3.15566L13.4754 3.54873C13.5193 3.57061 13.5671 3.58101 13.6144 3.58101C13.7106 3.58101 13.8042 3.53782 13.8557 3.46065C13.9326 3.34555 13.887 3.19837 13.7538 3.13191L11.6963 2.10511C11.5631 2.03862 11.3928 2.07809 11.3159 2.19319C11.2391 2.30829 11.2847 2.45547 11.4178 2.52193L12.2055 2.915L11.7583 3.58448C10.9616 3.21711 10.0972 2.96993 9.19543 2.85384C9.54435 2.57516 9.76334 2.1767 9.76334 1.73469C9.76334 0.894284 8.97229 0.210529 8 0.210529C7.02771 0.210529 6.23666 0.894284 6.23666 1.73469C6.23666 2.1767 6.45565 2.57516 6.80457 2.85381C5.90277 2.9699 5.0384 3.21707 4.24171 3.58444L3.79452 2.91497L4.5822 2.5219C4.71536 2.45544 4.76098 2.30826 4.6841 2.19316C4.60722 2.07806 4.43697 2.03862 4.30378 2.10508L2.2462 3.13188C2.11304 3.19833 2.06742 3.34552 2.1443 3.46062C2.19586 3.53782 2.28945 3.58098 2.38567 3.58098C2.43289 3.58098 2.48078 3.57058 2.52462 3.5487L3.3123 3.15563L3.76007 3.82597C3.2526 4.10118 2.77728 4.42764 2.3432 4.80284C0.832149 6.1089 0 7.84539 0 9.69241C0 11.5394 0.832149 13.2759 2.34316 14.582C3.85418 15.888 5.86313 16.6073 8 16.6073C10.1369 16.6073 12.1459 15.888 13.6568 14.582C15.1678 13.2759 16 11.5394 16 9.69241C16 7.84539 15.1679 6.1089 13.6568 4.80287ZM6.7935 1.73469C6.7935 1.15968 7.33476 0.691843 8 0.691843C8.66524 0.691843 9.2065 1.15968 9.2065 1.73469C9.2065 2.3097 8.66524 2.77754 8 2.77754C7.33476 2.77754 6.7935 2.3097 6.7935 1.73469ZM8 16.126C3.89583 16.126 0.556845 13.2399 0.556845 9.69241C0.556845 6.14494 3.89583 3.25885 8 3.25885C12.1042 3.25885 15.4432 6.14494 15.4432 9.69241C15.4432 13.2399 12.1042 16.126 8 16.126Z" fill="black"/>
<path d="M8.27842 8.71114V5.0718C8.27842 4.93889 8.15376 4.83114 8 4.83114C7.84624 4.83114 7.72158 4.93889 7.72158 5.0718V8.71082C7.2108 8.81908 6.83063 9.218 6.83063 9.69241C6.83063 10.1668 7.2108 10.5657 7.72158 10.674V12.0027C7.72158 12.1356 7.84624 12.2434 8 12.2434C8.15376 12.2434 8.27842 12.1356 8.27842 12.0027V10.674C8.7892 10.5657 9.16937 10.1668 9.16937 9.69241C9.16937 9.44325 9.06353 9.20385 8.87139 9.01838C8.71291 8.86535 8.50524 8.75934 8.27842 8.71114ZM8 10.2219C7.66226 10.2219 7.38747 9.98435 7.38747 9.69241C7.38747 9.40048 7.66226 9.16297 8 9.16297C8.174 9.16297 8.34038 9.22727 8.45654 9.33945C8.5571 9.43655 8.61253 9.56191 8.61253 9.69241C8.61253 9.98435 8.33774 10.2219 8 10.2219Z" fill="black"/>
<path d="M7.99999 3.80434C4.24382 3.80434 1.18793 6.44573 1.18793 9.69242C1.18793 12.9391 4.24382 15.5805 7.99999 15.5805C11.7562 15.5805 14.8121 12.9391 14.8121 9.69242C14.8121 6.44573 11.7562 3.80434 7.99999 3.80434ZM7.99999 15.0992C4.55086 15.0992 1.74477 12.6737 1.74477 9.69242C1.74477 6.71112 4.55086 4.28565 7.99999 4.28565C11.4491 4.28565 14.2552 6.71112 14.2552 9.69242C14.2552 12.6737 11.4491 15.0992 7.99999 15.0992Z" fill="black"/>
</svg>
